<?xml version="1.0" standalone="no"?>
<!DOCTYPE svg PUBLIC "-//W3C//DTD SVG 20010904//EN"
 "http://www.w3.org/TR/2001/REC-SVG-20010904/DTD/svg10.dtd">
<svg version="1.0" xmlns="http://www.w3.org/2000/svg"
 width="395.000000pt" height="103.000000pt" viewBox="0 0 395.000000 103.000000"
 preserveAspectRatio="xMidYMid meet">

<g transform="translate(0.000000,103.000000) scale(0.100000,-0.100000)"
fill="#000000" stroke="none">
<path d="M10 967 l0 -53 48 -12 c38 -11 58 -25 107 -79 133 -148 179 -189 230
-206 94 -33 209 -17 281 38 19 14 72 70 118 124 97 113 140 138 221 128 60 -6
100 -36 184 -135 116 -137 158 -163 274 -170 71 -4 82 -2 142 27 52 26 78 49
144 126 103 120 138 147 200 153 79 7 125 -20 221 -132 126 -148 188 -182 314
-174 108 7 158 41 282 189 71 85 125 119 189 119 58 0 118 -34 171 -98 143
-172 189 -203 307 -210 72 -4 82 -2 142 27 54 27 80 49 150 131 96 111 129
139 180 147 35 6 35 6 35 59 0 53 -1 54 -29 54 -40 0 -109 -26 -147 -55 -19
-14 -72 -70 -118 -124 -97 -112 -140 -138 -221 -129 -62 7 -103 38 -187 140
-107 131 -169 167 -288 167 -113 1 -162 -31 -314 -203 -73 -83 -111 -106 -173
-106 -69 1 -114 31 -207 139 -127 147 -182 177 -310 169 -108 -7 -155 -38
-277 -184 -127 -153 -235 -166 -346 -43 -190 209 -206 220 -326 227 -72 4 -82
2 -142 -27 -54 -27 -80 -49 -150 -131 -107 -125 -133 -143 -204 -147 -77 -5
-115 19 -223 144 -71 81 -100 108 -150 132 -34 17 -76 31 -95 31 l-33 0 0 -53z"/>
<path d="M0 381 c0 -58 1 -61 27 -66 59 -12 99 -43 181 -139 47 -54 105 -111
130 -127 94 -60 226 -60 321 -2 24 16 83 72 130 126 47 54 97 105 110 114 35
24 85 32 135 21 49 -10 74 -32 198 -170 98 -109 142 -132 253 -132 125 -1 167
25 318 197 79 89 112 109 178 109 68 0 99 -21 204 -142 117 -134 170 -165 284
-164 126 0 178 31 307 186 79 93 119 120 182 121 65 1 115 -26 169 -92 148
-178 204 -215 328 -215 108 0 159 23 239 111 134 146 172 182 201 188 17 4 36
8 43 11 14 4 17 124 2 124 -36 0 -115 -26 -153 -50 -24 -15 -81 -71 -126 -123
-98 -114 -134 -139 -201 -139 -67 0 -119 32 -189 117 -130 157 -181 189 -306
189 -125 1 -167 -25 -318 -197 -79 -89 -112 -109 -178 -109 -68 0 -99 21 -204
142 -117 134 -169 164 -284 165 -125 0 -177 -32 -307 -186 -93 -112 -140 -136
-228 -117 -49 10 -77 34 -194 166 -98 110 -148 136 -257 136 -128 0 -170 -26
-323 -202 -73 -84 -107 -104 -172 -104 -64 0 -99 21 -167 99 -136 158 -185
194 -285 208 l-48 7 0 -61z"/>
</g>
</svg>
