<?xml version="1.0" standalone="no"?>
<!DOCTYPE svg PUBLIC "-//W3C//DTD SVG 20010904//EN"
 "http://www.w3.org/TR/2001/REC-SVG-20010904/DTD/svg10.dtd">
<svg version="1.0" xmlns="http://www.w3.org/2000/svg"
 width="290.000000pt" height="44.000000pt" viewBox="0 0 290.000000 44.000000"
 preserveAspectRatio="xMidYMid meet">

<g transform="translate(0.000000,44.000000) scale(0.100000,-0.100000)"
fill="#806553" stroke="none">
<path d="M312 400 c-50 -26 -79 -51 -147 -130 -82 -95 -131 -140 -154 -140 -7
0 -11 -23 -11 -60 0 -33 2 -60 4 -60 2 0 23 7 47 15 61 22 97 52 193 164 97
113 140 138 221 128 60 -6 100 -36 184 -135 116 -137 158 -163 274 -170 71 -4
82 -2 142 27 52 26 78 49 144 126 103 120 138 147 200 153 79 7 125 -20 221
-132 126 -148 188 -182 314 -174 108 7 158 41 282 189 71 85 125 119 189 119
58 0 118 -34 171 -98 128 -153 184 -197 269 -209 l45 -6 0 55 c0 54 -1 56 -32
62 -51 10 -92 44 -170 138 -107 131 -169 167 -288 167 -113 1 -162 -31 -314
-203 -73 -83 -111 -106 -173 -106 -69 1 -114 31 -207 139 -127 147 -182 177
-310 169 -108 -7 -155 -38 -277 -184 -127 -153 -235 -166 -346 -43 -192 211
-206 220 -328 227 -74 3 -85 1 -143 -28z"/>
</g>
</svg>
